<?xml version="1.0" encoding="UTF-8" standalone="no"?>
<!-- Created with Inkscape (http://www.inkscape.org/) -->

<svg
   width="316.81158mm"
   height="52.984436mm"
   viewBox="0 0 316.8116 52.984474"
   version="1.1"
   id="svg1"
   xml:space="preserve"
   xmlns="http://www.w3.org/2000/svg"
   xmlns:svg="http://www.w3.org/2000/svg"><defs
     id="defs1" /><g
     id="g1"
     style="display:inline"
     transform="translate(-95.858804,-213.4659)"><g
       id="g2"><path
         d="m 611.06639,951.13315 c 6.13332,-2.26666 12.1333,-8.13331 12.1333,-18.66661 0,-16.39996 -13.7333,-24.66661 -35.06658,-24.66661 H 529.0666 l -18.66662,23.19994 h 78.93313 c 3.86666,0 7.73331,1.33333 7.73331,5.73332 0,4.53332 -3.73332,5.99999 -7.73331,5.99999 h -78.93313 v 54.26652 h 78.3998 c 28.13326,0 36.26657,-11.19997 36.26657,-25.99993 0,-10.66664 -6.26665,-17.59996 -13.99996,-19.86662 z m -22.13328,10.66664 c 5.99999,0 8.53331,2.13333 8.53331,5.99999 0,4.13332 -2.53332,6.26665 -8.53331,6.26665 h -50.79987 v -12.26664 z m 77.73323,12.26664 v -12.1333 h 54.79986 l 15.86662,-20.26662 h -70.66648 v -10.66664 h 57.73318 l 17.86662,-23.19994 H 638.93307 v 89.19977 h 85.86645 l 17.73329,-22.93327 z m 195.46612,5.59998 c -6.13332,-6.26665 -9.46665,-9.46664 -12.5333,-11.7333 14.66662,-2.93332 23.33327,-14.39996 23.33327,-28.26659 0,-25.4666 -25.59994,-31.86659 -45.86655,-31.86659 h -57.33319 l -17.99995,23.19994 h 77.5998 c 9.46664,0 15.19996,3.46666 15.19996,10.39998 0,6.13331 -6.66665,9.99997 -15.19996,9.99997 h -77.5998 v 45.59988 h 27.59993 v -23.59994 h 42.39989 l 19.86662,23.59994 h 36.93323 z m 101.8665,-12.1333 c -11.46664,-9.33331 -18.39995,-14.26663 -23.46661,-17.73329 5.73332,-3.46665 11.19998,-7.46664 23.06661,-16.39995 l 34.13325,-25.59994 h -39.9999 l -25.73327,21.73328 c -8.13331,6.79998 -12.9333,11.3333 -16.39995,14.5333 0.26666,-4.66666 0.53333,-10.13331 0.53333,-15.59996 v -20.66662 h -27.73327 v 89.19977 h 27.73327 v -25.59993 c 0,-4.26666 -0.26667,-8.66665 -0.4,-12.79997 3.06666,3.06666 7.33331,6.93332 16.53329,14.9333 l 26.93326,23.4666 h 41.73323 z m 80.13324,-24.13327 c -6.4,0 -9.4667,-1.73333 -9.4667,-6.26665 0,-4.53332 3.0667,-6.13332 9.4667,-6.13332 h 61.8665 l 17.7333,-23.19994 h -77.4665 c -27.0666,0 -38.2666,10.93331 -38.2666,27.73326 0,15.3333 10.5333,25.59994 33.4666,25.59994 h 48.5332 c 6.5333,0 9.4667,1.86666 9.4667,6.39998 0,4.66666 -2.9334,6.53332 -9.4667,6.53332 h -67.4665 l -17.7333,22.93327 h 83.0665 c 27.1999,0 38.2666,-10.9333 38.2666,-29.19992 0,-16.26663 -11.7334,-24.39994 -33.4666,-24.39994 z m 202.5327,-35.59991 h -27.4666 v 31.59992 h -53.0665 v -31.59992 h -27.7333 v 89.19977 h 27.7333 v -34.39991 h 53.0665 v 34.39991 h 27.4666 z m 44.9331,0 h -27.5999 v 89.19977 h 27.5999 z m 127.3331,71.86648 c -6.1333,-6.26665 -9.4666,-9.46664 -12.5333,-11.7333 14.6666,-2.93332 23.3333,-14.39996 23.3333,-28.26659 0,-25.4666 -25.6,-31.86659 -45.8666,-31.86659 h -57.3332 l -17.9999,23.19994 h 77.5998 c 9.4666,0 15.1999,3.46666 15.1999,10.39998 0,6.13331 -6.6666,9.99997 -15.1999,9.99997 h -77.5998 v 45.59988 h 27.5999 v -23.59994 h 42.3999 l 19.8666,23.59994 h 36.9333 z m 54,-5.59998 v -12.1333 h 54.7999 l 15.8666,-20.26662 h -70.6665 v -10.66664 h 57.7332 l 17.8666,-23.19994 h -103.3331 v 89.19977 h 85.8665 l 17.7333,-22.93327 z"
         id="text1"
         style="font-size:133.333px;font-family:Ethnocentric;-inkscape-font-specification:Ethnocentric;white-space:pre;fill:#013673;stroke-width:0.133333"
         transform="matrix(0.3050966,0,0,0.30611009,-59.862495,-64.420821)"
         aria-label="berkshire" /><g
         id="g60"><path
           d="m 197.99297,262.86893 c -1.1684,-1.1938 -1.8034,-1.8034 -2.3876,-2.2352 2.794,-0.5588 4.445,-2.7432 4.445,-5.3848 0,-4.8514 -4.8768,-6.0706 -8.7376,-6.0706 h -10.922 l -3.429,4.4196 h 14.7828 c 1.8034,0 2.8956,0.6604 2.8956,1.9812 0,1.1684 -1.27,1.905 -2.8956,1.905 h -14.7828 v 8.6868 h 5.2578 v -4.4958 h 8.0772 l 3.7846,4.4958 h 7.0358 z m 18.92724,-13.97 c -8.2804,0 -12.4206,2.6924 -12.4206,8.763 0,6.0706 4.1402,8.7884 12.4206,8.7884 8.255,0 12.4206,-2.7178 12.4206,-8.7884 0,-6.0706 -4.1656,-8.763 -12.4206,-8.763 z m 0,13.1318 c -5.2832,0 -7.1882,-0.7112 -7.1882,-4.3688 0,-3.6576 1.905,-4.3434 7.1882,-4.3434 5.2832,0 7.1882,0.6858 7.1882,4.3434 0,3.6576 -1.905,4.3688 -7.1882,4.3688 z m 33.22745,-12.8524 -3.8608,4.699 c -1.2192,1.4732 -1.8034,2.2098 -2.1336,2.6924 -0.3556,-0.508 -1.778,-2.0574 -2.3114,-2.667 l -4.064,-4.7244 h -6.7564 l 10.3632,11.3538 v 5.6388 h 5.2832 v -5.6134 l 10.0838,-11.3792 z m 31.95744,16.9926 -10.6172,-15.367 c -0.7366,-1.0668 -1.778,-1.905 -3.3528,-1.905 -1.651,0 -2.6924,0.9144 -3.4036,1.905 l -10.8966,15.367 h 6.223 l 7.9756,-11.2776 3.048,4.4958 c 0.5588,0.8128 1.27,1.8542 1.7272,2.4638 -0.8128,-0.0508 -2.0066,-0.0508 -3.0226,-0.0508 h -4.2672 l -3.175,4.3688 z m 9.78324,-4.3688 v -12.6238 h -5.2578 v 16.9926 h 15.0114 l 3.4036,-4.3688 z m 24.05804,-5.842 c -1.2192,0 -1.8034,-0.3302 -1.8034,-1.1938 0,-0.8636 0.5842,-1.1684 1.8034,-1.1684 h 11.7856 l 3.3782,-4.4196 h -14.7574 c -5.1562,0 -7.2898,2.0828 -7.2898,5.2832 0,2.921 2.0066,4.8768 6.3754,4.8768 h 9.2456 c 1.2446,0 1.8034,0.3556 1.8034,1.2192 0,0.889 -0.5588,1.2446 -1.8034,1.2446 h -12.8524 l -3.3782,4.3688 h 15.8242 c 5.1816,0 7.2898,-2.0828 7.2898,-5.5626 0,-3.0988 -2.2352,-4.6482 -6.3754,-4.6482 z"
           id="text2"
           style="font-size:25.4px;font-family:Ethnocentric;-inkscape-font-specification:Ethnocentric;letter-spacing:2.64583px;fill:#fed304;stroke-width:2.64583"
           aria-label="Royals" /><path
           id="path41"
           style="display:inline;opacity:1;fill:none;fill-opacity:1;stroke:#fed304;stroke-width:2.64583;stroke-dasharray:none;stroke-opacity:1"
           d="m 335.88185,257.67463 h 76.60362" /><path
           id="path44"
           style="display:inline;opacity:1;fill:none;fill-opacity:1;stroke:#fed304;stroke-width:2.64583;stroke-dasharray:none;stroke-opacity:1"
           d="M 96.043679,257.67463 H 172.64679" /></g></g></g></svg>
