<?xml version="1.0" encoding="UTF-8" standalone="no"?>
<svg
   class="svg-icon"
   style="width: 1em; height: 1em;vertical-align: middle;fill: currentColor;overflow: hidden;"
   viewBox="0 0 1024 1024"
   version="1.1"
   id="svg1"
   sodipodi:docname="facebook-147.svg"
   inkscape:version="1.3.2 (091e20e, 2023-11-25, custom)"
   xmlns:inkscape="http://www.inkscape.org/namespaces/inkscape"
   xmlns:sodipodi="http://sodipodi.sourceforge.net/DTD/sodipodi-0.dtd"
   xmlns="http://www.w3.org/2000/svg"
   xmlns:svg="http://www.w3.org/2000/svg">
  <defs
     id="defs1" />
  <sodipodi:namedview
     id="namedview1"
     pagecolor="#ffffff"
     bordercolor="#000000"
     borderopacity="0.25"
     inkscape:showpageshadow="2"
     inkscape:pageopacity="0.0"
     inkscape:pagecheckerboard="0"
     inkscape:deskcolor="#d1d1d1"
     inkscape:zoom="1.1923828"
     inkscape:cx="512"
     inkscape:cy="512"
     inkscape:window-width="1350"
     inkscape:window-height="1237"
     inkscape:window-x="2260"
     inkscape:window-y="137"
     inkscape:window-maximized="0"
     inkscape:current-layer="svg1" />
  <path
     d="M891.733333 85.333333H132.266667A46.933333 46.933333 0 0 0 85.333333 132.266667v759.466666A46.933333 46.933333 0 0 0 132.266667 938.666667h408.746666v-330.666667h-110.933333v-128h110.933333V384a155.306667 155.306667 0 0 1 165.546667-170.666667 864.426667 864.426667 0 0 1 99.413333 5.12v115.2H738.133333c-53.76 0-64 25.6-64 62.72v82.346667h128l-16.64 128H674.133333V938.666667h217.6a46.933333 46.933333 0 0 0 46.933334-46.933334V132.266667A46.933333 46.933333 0 0 0 891.733333 85.333333z"
     id="path1"
     style="fill:#013673;fill-opacity:1"
     inkscape:export-filename="facebook-147.svg"
     inkscape:export-xdpi="96"
     inkscape:export-ydpi="96" />
</svg>
